<?xml version="1.0" standalone="no"?><svg xmlns="http://www.w3.org/2000/svg" viewBox="0 0 1440 320"><path fill="#FF0000" fill-opacity="1" d="M0,288L30,245.3C60,203,120,117,180,85.3C240,53,300,75,360,117.3C420,160,480,224,540,234.7C600,245,660,203,720,181.3C780,160,840,160,900,181.3C960,203,1020,245,1080,261.3C1140,277,1200,267,1260,218.7C1320,171,1380,85,1410,42.7L1440,0L1440,320L1410,320C1380,320,1320,320,1260,320C1200,320,1140,320,1080,320C1020,320,960,320,900,320C840,320,780,320,720,320C660,320,600,320,540,320C480,320,420,320,360,320C300,320,240,320,180,320C120,320,60,320,30,320L0,320Z"></path></svg>